<?xml version="1.0" encoding="utf-8"?>
<svg xmlns="http://www.w3.org/2000/svg" viewBox="0 0 256 256" xmlns:bx="https://boxy-svg.com">
  <defs>
    <bx:export>
      <bx:file format="svg"/>
      <bx:file format="png"/>
      <bx:file format="svg" href="#object-0" path="Untitled 2.svg"/>
    </bx:export>
  </defs>
  <g style="transform-origin: 132.226px 127.755px;" transform="matrix(0.79923, 0, 0, 0.79923, -4.225952, 0.244625)">
    <ellipse style="stroke: rgba(0, 0, 0, 0); stroke-width: 1; fill: rgb(118, 44, 44);" cx="129.7" cy="132.7" rx="121.372" ry="122.245"/>
    <ellipse style="stroke: rgba(0, 0, 0, 0); fill: rgb(192, 73, 73);" cx="129.728" cy="125.248" rx="121.372" ry="122.245"/>
    <g>
      <g>
        <ellipse style="fill: rgba(216, 216, 216, 0); stroke-width: 5; stroke: rgb(147, 147, 147);" cx="129.7" cy="129" rx="97.516" ry="97.516"/>
        <ellipse style="stroke: rgb(255, 255, 255); fill: rgba(216, 216, 216, 0); stroke-width: 5px;" cx="129.7" cy="125.2" rx="97.516" ry="97.516"/>
      </g>
      <g transform="matrix(1.036727, 0, 0, 1.036727, -4.533742, 3.431432)" style="">
        <g transform="matrix(1, 0, 0, 1, -1.660407, 4.358567)">
          <rect x="81.169" y="150.132" width="101.019" height="11.474" style="fill: rgb(190, 190, 190); stroke: rgba(255, 255, 255, 0);" rx="0.255" ry="0.255"/>
          <rect x="81.169" y="138" width="13.719" height="17.211" style="fill: rgb(190, 190, 190); stroke: rgba(255, 255, 255, 0);"/>
          <rect x="168.436" y="137.964" width="13.719" height="17.211" style="stroke-width: 1; fill: rgb(190, 190, 190); stroke: rgba(255, 255, 255, 0);"/>
        </g>
      </g>
      <g transform="matrix(1.036727, 0, 0, 1.036727, -4.546384, 1.060913)" style="" id="object-0">
        <g transform="matrix(1, 0, 0, 1, -1.660407, 4.358567)">
          <rect x="81.169" y="150.132" width="101.019" height="11.474" style="stroke: rgba(255, 255, 255, 0); fill: rgb(255, 255, 255);" rx="1.021" ry="1.021"/>
          <rect x="81.169" y="138" width="13.719" height="17.211" style="stroke: rgba(255, 255, 255, 0); fill: rgb(255, 255, 255);" rx="1.532" ry="1.532"/>
          <rect x="168.436" y="137.964" width="13.719" height="17.211" style="stroke-width: 1; stroke: rgba(255, 255, 255, 0); fill: rgb(255, 255, 255);" rx="1.532" ry="1.532"/>
        </g>
      </g>
    </g>
  </g>
  <path d="M 97.997 78.614 H 126.531 L 126.531 65.027 L 165.693 90.203 L 126.531 115.378 L 126.531 101.792 H 97.997 V 78.614 Z" bx:shape="arrow 97.997 65.027 67.696 50.351 23.178 39.162 0 1@894806d5" style="stroke: rgba(0, 0, 0, 0); fill: rgb(255, 255, 255); transform-origin: 152.781px 88.3127px;" transform="matrix(0, 1, -1, 0, -24.780601, 39.68684)"/>
</svg>